<?xml version="1.0" encoding="UTF-8" standalone="no"?>
<svg
   version="1.1"
   width="385.4353"
   height="181.1922"
   id="svg20"
   viewBox="0 0 385.4353 181.1922"
   sodipodi:docname="2d44c158907e563a26b940ed37586d20.cdr"
   xmlns:inkscape="http://www.inkscape.org/namespaces/inkscape"
   xmlns:sodipodi="http://sodipodi.sourceforge.net/DTD/sodipodi-0.dtd"
   xmlns="http://www.w3.org/2000/svg"
   xmlns:svg="http://www.w3.org/2000/svg">
  <defs
     id="defs24" />
  <sodipodi:namedview
     id="namedview22"
     pagecolor="#ffffff"
     bordercolor="#666666"
     borderopacity="1.0"
     inkscape:pageshadow="2"
     inkscape:pageopacity="0.0"
     inkscape:pagecheckerboard="0" />
  <path
     d="M 0,112.1612 19.2481,20.2841 H 38.111 L 18.8844,112.1612 Z M 37.4868,45.5629 h 17.1734 l -1.7323,8.7478 c 4.2772,-3.7644 8.2979,-6.4163 12.0192,-8.0204 3.7213,-1.6038 7.6351,-2.3953 11.7627,-2.3953 5.4963,0 9.8379,1.5826 13.0246,4.769 3.1652,3.187 4.7477,7.4002 4.7477,12.6613 -0.0212,2.3312 -0.7911,6.7365 -2.3096,13.2171 l -8.0629,37.6188 H 66.1448 l 8.1697,-37.726 c 1.1764,-5.646 1.7966,-9.0037 1.8607,-10.116 0,-2.374 -0.6843,-4.2128 -2.0532,-5.5601 -1.3901,-1.3476 -3.2936,-2.0322 -5.7316,-2.0322 -2.6734,0 -5.6248,1.112 -8.8756,3.3367 -3.2508,2.2238 -5.7957,5.1755 -7.6564,8.8324 -1.3901,2.5881 -2.9511,7.9132 -4.7049,15.933 l -5.6461,27.3322 H 23.5426 Z m 65.3748,0 h 17.1735 l -1.7323,8.7478 c 4.2772,-3.7644 8.2979,-6.4163 12.0192,-8.0204 3.7213,-1.6038 7.6351,-2.3953 11.7626,-2.3953 5.4964,0 9.838,1.5826 13.0247,4.769 3.1651,3.187 4.7477,7.4002 4.7477,12.6613 -0.0213,2.3312 -0.7911,6.7365 -2.3097,13.2171 l -8.0628,37.6188 h -17.9649 l 8.1698,-37.726 c 1.1763,-5.646 1.7966,-9.0037 1.8606,-10.116 0,-2.374 -0.6843,-4.2128 -2.0531,-5.5601 -1.3901,-1.3476 -3.2936,-2.0322 -5.7317,-2.0322 -2.6733,0 -5.6248,1.112 -8.8755,3.3367 -3.2508,2.2238 -5.7957,5.1755 -7.6564,8.8324 -1.3901,2.5881 -2.9512,7.9132 -4.705,15.933 l -5.646,27.3322 H 88.9174 Z m 191.4495,66.5983 H 278.8483 L 265.4816,45.5629 h 17.7083 l 4.5553,29.0863 c 1.3048,7.8486 2.1174,13.0675 2.438,15.6977 0.385,-0.7058 1.8607,-3.4007 4.4485,-8.0844 2.5877,-4.6836 4.149,-7.5276 4.7264,-8.49 l 16.4251,-28.2096 h 19.3762 z m 89.8625,-27.7168 h -45.1902 c -0.0428,0.7055 -0.0641,1.2617 -0.0641,1.6463 0,4.4703 1.2833,8.0632 3.8282,10.8003 2.5449,2.7377 5.6676,4.1066 9.3246,4.1066 6.031,0 10.7362,-3.0799 14.1151,-9.2393 l 16.0401,2.6946 c -3.1439,6.4591 -7.3355,11.2924 -12.5969,14.5216 -5.2611,3.2295 -11.1424,4.8549 -17.6867,4.8549 -8.9609,0 -16.2539,-2.8442 -21.8571,-8.5116 -5.6248,-5.6891 -8.4263,-13.1955 -8.4263,-22.5632 0,-9.1321 2.5237,-17.259 7.5923,-24.402 6.8865,-9.6457 16.7457,-14.4576 29.535,-14.4576 8.1482,0 14.6285,2.5234 19.4403,7.5708 4.8121,5.0477 7.2074,12.1263 7.2074,21.2156 0,4.3628 -0.4278,8.2766 -1.2617,11.763 z M 369.0102,73.5369 c 0.0428,-0.8127 0.0644,-1.4113 0.0644,-1.8394 0,-4.9827 -1.1121,-8.7256 -3.3364,-11.2277 -2.2028,-2.5024 -5.1755,-3.7429 -8.9184,-3.7429 -3.721,0 -7.0574,1.412 -10.0088,4.256 -2.9515,2.8233 -4.9403,7.0148 -5.9882,12.554 z"
     style="fill:#1b1918;fill-rule:evenodd"
     id="path2" />
  <path
     d="m 25.5053,138.4018 v -11.4244 h 8.4569 v 1.9306 h -6.1433 v 2.5371 h 5.7124 v 1.9306 h -5.7124 v 3.0958 h 6.3666 v 1.9303 z m 35.4353,0 V 126.9774 H 63.18 l 4.7015,7.6563 v -7.6563 h 2.1382 v 11.4244 h -2.3108 l -4.6301,-7.5101 v 7.5101 z m 41.6294,-4.1964 v -1.9304 h 4.9623 v 4.5582 c -0.4813,0.4702 -1.1809,0.8829 -2.0982,1.2415 -0.9148,0.3563 -1.8431,0.5346 -2.7845,0.5346 -1.1939,0 -2.2337,-0.25 -3.1221,-0.7526 -0.8855,-0.5023 -1.5531,-1.2234 -1.9998,-2.1566 -0.4468,-0.9337 -0.6701,-1.9522 -0.6701,-3.0503 0,-1.1914 0.25,-2.2499 0.7472,-3.1779 0.5,-0.9256 1.2285,-1.6385 2.1886,-2.1328 0.7342,-0.3802 1.6435,-0.5689 2.734,-0.5689 1.4174,0 2.5263,0.2973 3.3242,0.8932 0.7951,0.5983 1.3082,1.4201 1.537,2.4735 l -2.2975,0.4306 c -0.1596,-0.561 -0.4629,-1.0052 -0.9071,-1.3323 -0.4414,-0.3243 -0.9944,-0.4865 -1.6594,-0.4865 -1.0052,0 -1.8057,0.3187 -2.3987,0.9599 -0.593,0.6409 -0.8909,1.5905 -0.8909,2.8479 0,1.359 0.3005,2.3774 0.9017,3.0561 0.6035,0.6777 1.3907,1.0184 2.3666,1.0184 0.4814,0 0.9655,-0.0961 1.4494,-0.2846 0.4867,-0.1887 0.9017,-0.4201 1.2501,-0.6913 v -1.4497 z m 31.8903,4.1964 v -11.4244 h 8.4569 v 1.9306 h -6.1433 v 2.5371 h 5.7124 v 1.9306 h -5.7124 v 3.0958 h 6.3666 v 1.9303 z m 35.4353,0 v -11.4244 h 2.2394 l 4.7015,7.6563 v -7.6563 h 2.1382 v 11.4244 h -2.3108 l -4.6301,-7.5101 v 7.5101 z m 36.3158,0 v -11.4244 h 2.3136 v 4.4997 h 4.4998 v -4.4997 h 2.3136 v 11.4244 h -2.3136 v -4.994 h -4.4998 v 4.994 z m 46.6075,0 h -2.4916 l -0.9868,-2.6007 h -4.5822 l -0.9493,2.6007 h -2.4466 l 4.436,-11.4244 h 2.4437 z m -4.2284,-4.5311 -1.5874,-4.2288 -1.5426,4.2288 z m 30.2525,4.5311 v -11.4244 h 4.8585 c 1.2209,0 2.109,0.1034 2.6623,0.3087 0.5556,0.2043 0.9973,0.5689 1.3295,1.0924 0.3325,0.5267 0.5,1.1251 0.5,1.8009 0,0.8589 -0.25,1.5661 -0.7526,2.1246 -0.5026,0.5587 -1.2526,0.9093 -2.2524,1.0559 0.4972,0.2899 0.9068,0.6088 1.2286,0.9572 0.3245,0.3487 0.7605,0.9681 1.3084,1.8561 l 1.3935,2.2286 h -2.7578 l -1.654,-2.4944 c -0.593,-0.8856 -1.0001,-1.4437 -1.2206,-1.675 -0.2183,-0.2291 -0.4496,-0.3887 -0.6942,-0.4734 -0.2475,-0.0853 -0.6355,-0.1281 -1.1676,-0.1281 h -0.468 v 4.7709 z m 2.3136,-6.5897 h 1.7073 c 1.1064,0 1.7952,-0.0481 2.0718,-0.1408 0.2739,-0.093 0.4919,-0.2554 0.6461,-0.4839 0.157,-0.2291 0.2341,-0.5165 0.2341,-0.8595 0,-0.3855 -0.1037,-0.6936 -0.3084,-0.9331 -0.2049,-0.2367 -0.4946,-0.3856 -0.8671,-0.4471 -0.1888,-0.0263 -0.7498,-0.0397 -1.6832,-0.0397 h -1.8006 z m 33.9225,6.5897 v -11.4244 h 2.3136 v 11.4244 z m 39.5972,0 h -2.4917 l -0.9867,-2.6007 h -4.5822 l -0.9494,2.6007 h -2.4466 l 4.436,-11.4244 h 2.4437 z m -4.2285,-4.5311 -1.5874,-4.2288 -1.5426,4.2288 z"
     style="fill:#1b1918;fill-rule:evenodd"
     id="path4" />
  <path
     d="m 209.3471,0 h 8.1006 v 28.7436 l 7.4395,-27.7642 7.8245,2.0967 -7.4393,27.7643 14.3717,-24.893 7.0154,4.0504 -14.3719,24.8924 20.325,-20.3247 5.7279,5.7283 -20.3249,20.3247 24.8927,-14.372 4.0504,7.0152 -24.8927,14.372 27.7642,-7.4396 2.0965,7.8251 -27.7642,7.4389 h 28.7436 v 8.1009 h -28.7436 l 27.7642,7.4392 -2.0965,7.8248 -27.7642,-7.4395 24.8927,14.3719 -4.0504,7.0155 -24.8927,-14.3723 20.3249,20.3247 -5.7279,5.7283 -20.325,-20.3247 14.3719,24.8924 -7.0154,4.0504 -14.3717,-24.8927 7.4393,27.7642 -7.8245,2.0965 -7.4395,-27.7642 v 28.7436 h -8.1006 V 90.2735 l -7.4393,27.7642 -7.8244,-2.0965 7.4392,-27.7642 -14.3716,24.8927 -7.0155,-4.0504 14.3717,-24.8924 -20.3247,20.3247 -5.728,-5.7283 20.3247,-20.3247 -24.8925,14.3723 -4.0504,-7.0155 24.8927,-14.3719 -27.7642,7.4395 -2.0965,-7.8248 27.7642,-7.4392 h -28.7436 v -8.1009 h 28.7436 l -27.7642,-7.4389 2.0965,-7.8251 27.7642,7.4396 -24.8927,-14.372 4.0504,-7.0152 24.8925,14.372 -20.3247,-20.3247 5.728,-5.7283 20.3247,20.3247 -14.3717,-24.8924 7.0155,-4.0504 14.3716,24.8927 -7.4392,-27.764 7.8244,-2.0967 7.4393,27.7642 z"
     style="fill:#3d7225;fill-rule:evenodd"
     id="path6" />
  <path
     d="m 213.3975,3.6059 c 30.8741,0 55.9026,25.0285 55.9026,55.9027 0,30.8743 -25.0285,55.9029 -55.9026,55.9029 -30.8744,0 -55.9026,-25.0286 -55.9026,-55.9029 0,-30.8742 25.0282,-55.9027 55.9026,-55.9027 z"
     style="fill:#3d7225;fill-rule:evenodd"
     id="path8" />
  <path
     d="m 213.3975,6.8615 c 14.5378,0 27.6999,5.8933 37.2268,15.4199 9.5273,9.5276 15.42,22.6894 15.42,37.2272 0,14.5383 -5.8927,27.6998 -15.42,37.2271 -9.5269,9.5269 -22.689,15.4199 -37.2268,15.4199 -14.538,0 -27.6999,-5.893 -37.2271,-15.4199 -9.5272,-9.5276 -15.4199,-22.6894 -15.4199,-37.2271 0,-14.5378 5.8927,-27.6996 15.4199,-37.2272 9.5272,-9.5266 22.6891,-15.4199 37.2271,-15.4199 z m 40.1976,69.5495 c 0,3.2785 4.9492,3.2731 4.9492,0 0,-3.267 -4.9492,-3.2786 -4.9492,0 z M 241.9489,42.1245 c -5.686,0 -5.7192,8.6239 0,8.6239 5.7036,0 5.6951,-8.6239 0,-8.6239 z m -28.0091,-8.0439 c 11.0092,0 11.0177,-16.668 0,-16.668 -11.0214,0 -11.0123,16.668 0,16.668 z m -32.9789,12.356 c 0,5.6863 8.6239,5.7197 8.6239,0 0,-5.7079 -8.6239,-5.6926 -8.6239,0 z m -10.5981,32.3697 c 3.2729,0 3.27,-4.951 0,-4.951 -3.2721,0 -3.2695,4.951 0,4.951 z m 82.3787,-5.8471 c 4.5159,-4.5465 11.4177,2.3035 6.8806,6.8772 -1.1846,1.1761 -2.8001,1.6236 -4.3328,1.3339 l -7.0724,6.9172 h -14.6996 l -10.101,10.1074 c -2.2626,3.8897 0.4589,9.2484 2.5021,11.1875 9.1667,-2.2938 17.3585,-7.0477 23.8317,-13.5209 9.3033,-9.3033 15.0577,-22.1565 15.0577,-36.3529 0,-14.1962 -5.7544,-27.0494 -15.0577,-36.3527 -9.3033,-9.3036 -22.1561,-15.0576 -36.3526,-15.0576 -14.1967,0 -27.0493,5.754 -36.3526,15.0576 -9.3036,9.3033 -15.0579,22.1565 -15.0579,36.3527 0,14.1964 5.7543,27.0496 15.0579,36.3529 6.9794,6.9794 15.9568,11.9613 26.0002,14.0147 1.3847,-1.4927 3.9886,-5.4496 1.6741,-10.5327 l -11.2467,-11.256 h -14.9491 l -7.0815,-6.9172 c -4.6743,0.887 -7.685,-4.8537 -4.3146,-8.2111 3.4583,-3.4803 9.339,-0.1683 8.1354,4.6279 l 5.2597,5.2563 h 7.7151 l -8.5133,-8.2611 V 54.688 c -7.831,-5.3601 -4.1017,-17.8526 5.5485,-17.8526 9.8669,0 13.5655,13.0507 4.9969,18.1763 v 14.9607 l 16.0161,15.3878 c 0.2681,-14.7021 0,-15.7079 0,-45.7767 -13.6145,-8.0075 -7.8585,-28.7433 7.7822,-28.7433 15.5798,0 21.4061,20.5895 7.8795,28.6915 -0.7804,7.3159 0,20.8394 0,45.8285 L 236.7108,69.9724 V 55.0117 c -8.5377,-5.1072 -4.8878,-18.1763 4.9972,-18.1763 9.629,0 13.4013,12.4772 5.5485,17.8526 v 19.8943 l -8.5045,8.2611 h 7.4622 l 5.2597,-5.2563 c -0.402,-1.6025 0,-3.3767 1.2676,-4.6279 z"
     style="fill:#ffffff;fill-rule:evenodd"
     id="path10" />
  <g
     id="Layer1000"
     transform="translate(-256.5737,-234.4194)">
    <path
       d="m 469.9712,239.3902 c 26.2191,0 47.4738,18.1174 47.4738,40.4654 0,22.3487 -21.2547,40.4655 -47.4738,40.4655 -26.2193,0 -47.4741,-18.1168 -47.4741,-40.4655 0,-22.348 21.2548,-40.4654 47.4741,-40.4654 z"
       style="fill:#ffffff;fill-opacity:0;fill-rule:evenodd"
       id="path12" />
  </g>
  <g
     id="Layer1001"
     transform="translate(-256.5737,-234.4194)">
    <path
       d="m 469.9712,347.2196 c 26.2191,0 47.4738,-18.1174 47.4738,-40.4654 0,-22.3487 -21.2547,-40.4655 -47.4738,-40.4655 -26.2193,0 -47.4741,18.1168 -47.4741,40.4655 0,22.348 21.2548,40.4654 47.4741,40.4654 z"
       style="fill:#000200;fill-opacity:0;fill-rule:evenodd"
       id="path15" />
  </g>
  <path
     d="m 59.4632,175.1479 3.0549,0.9386 c -0.4691,1.7198 -1.2512,2.9965 -2.3423,3.833 -1.0907,0.8325 -2.4729,1.2509 -4.1493,1.2509 -2.0767,0 -3.7823,-0.7089 -5.1208,-2.1277 -1.3345,-1.4181 -2.0038,-3.3568 -2.0038,-5.8187 0,-2.6005 0.6729,-4.6221 2.0149,-6.0627 1.3419,-1.44 3.1093,-2.1603 5.2988,-2.1603 1.9128,0 3.4659,0.5675 4.6587,1.6985 0.7126,0.6696 1.2438,1.6297 1.6002,2.884 l -3.1204,0.7418 c -0.1854,-0.8073 -0.5709,-1.447 -1.1566,-1.9165 -0.589,-0.4688 -1.3019,-0.7015 -2.1384,-0.7015 -1.1602,0 -2.1022,0.4144 -2.8222,1.2469 -0.7237,0.8294 -1.0837,2.175 -1.0837,4.0368 0,1.9713 0.3563,3.3787 1.0656,4.2154 0.7129,0.8399 1.6364,1.2583 2.7748,1.2583 0.8402,0 1.5639,-0.2656 2.1677,-0.8002 0.6037,-0.5343 1.04,-1.3708 1.3019,-2.5166 z m 5.1097,-1.9564 c 0,-1.5928 0.2401,-2.9314 0.7166,-4.015 0.3527,-0.7969 0.8399,-1.5132 1.4548,-2.1462 0.6145,-0.6326 1.2872,-1.1018 2.0183,-1.4108 0.9745,-0.411 2.0984,-0.6185 3.3712,-0.6185 2.3057,0 4.1459,0.7166 5.5315,2.1459 1.3822,1.4331 2.0733,3.4222 2.0733,5.9714 0,2.528 -0.6874,4.5063 -2.0585,5.9321 -1.3712,1.4289 -3.2077,2.1418 -5.5027,2.1418 -2.3238,0 -4.1748,-0.7092 -5.5459,-2.131 -1.3712,-1.4182 -2.0586,-3.3753 -2.0586,-5.8697 z m 3.2514,-0.1058 c 0,1.7714 0.411,3.113 1.2291,4.0298 0.8183,0.913 1.8584,1.3711 3.117,1.3711 1.2619,0 2.2946,-0.4544 3.1056,-1.3604 0.8076,-0.909 1.2112,-2.2691 1.2112,-4.0839 0,-1.7931 -0.3928,-3.1314 -1.182,-4.0113 -0.7855,-0.8841 -1.8292,-1.3237 -3.1348,-1.3237 -1.302,0 -2.3531,0.4473 -3.1496,1.3379 -0.7965,0.8946 -1.1965,2.2402 -1.1965,4.0405 z m 14.3762,7.8231 v -15.6237 h 3.0622 l 6.4299,10.4703 v -10.4703 h 2.9242 v 15.6237 h -3.1606 l -6.3315,-10.2702 v 10.2702 z m 14.9292,-5.0624 3.0767,-0.3059 c 0.1857,1.0296 0.5565,1.7824 1.1203,2.2658 0.5638,0.4838 1.3238,0.7236 2.2802,0.7236 1.0111,0 1.7747,-0.2145 2.2875,-0.6434 0.5128,-0.4295 0.771,-0.9309 0.771,-1.5058 0,-0.371 -0.1091,-0.6834 -0.3237,-0.9453 -0.2145,-0.2586 -0.5927,-0.4836 -1.131,-0.673 -0.3674,-0.1309 -1.2039,-0.3566 -2.5129,-0.6834 -1.6838,-0.4224 -2.8658,-0.9389 -3.5459,-1.5531 -0.9567,-0.8618 -1.4329,-1.9128 -1.4329,-3.1533 0,-0.7962 0.2254,-1.5454 0.6727,-2.2399 0.451,-0.6951 1.0984,-1.222 1.9457,-1.5857 0.8475,-0.364 1.8658,-0.546 3.0659,-0.546 1.9528,0 3.4257,0.4332 4.4113,1.3023 0.9893,0.8693 1.5058,2.0259 1.5565,3.4767 l -3.1637,0.1094 c -0.1347,-0.8076 -0.4221,-1.3862 -0.862,-1.7385 -0.4403,-0.3529 -1.1022,-0.5309 -1.982,-0.5309 -0.9094,0 -1.6223,0.1887 -2.1351,0.5672 -0.3308,0.2437 -0.498,0.5675 -0.498,0.9745 0,0.3711 0.1562,0.6871 0.4691,0.9493 0.3963,0.3379 1.3601,0.6874 2.8913,1.0508 1.531,0.36 2.6621,0.7388 3.3931,1.124 0.7345,0.3892 1.3093,0.9164 1.7238,1.5894 0.4147,0.6726 0.6219,1.502 0.6219,2.4877 0,0.8946 -0.2472,1.7348 -0.7455,2.5166 -0.4984,0.7817 -1.2002,1.3634 -2.1093,1.7416 -0.9093,0.3824 -2.0441,0.5711 -3.4004,0.5711 -1.9749,0 -3.4915,-0.4544 -4.5496,-1.3671 -1.0585,-0.9096 -1.6875,-2.2368 -1.895,-3.9787 z m 15.3836,-10.5613 h 3.1641 v 8.4665 c 0,1.3456 0.0402,2.2147 0.1165,2.6113 0.1346,0.6397 0.451,1.1565 0.9527,1.5417 0.5057,0.3889 1.1931,0.582 2.0659,0.582 0.8835,0 1.5528,-0.1817 2.0038,-0.5494 0.451,-0.3674 0.72,-0.8147 0.811,-1.3493 0.091,-0.5346 0.1383,-1.4182 0.1383,-2.6546 v -8.6482 h 3.164 v 8.2153 c 0,1.8768 -0.0839,3.204 -0.2548,3.9785 -0.1709,0.7749 -0.4836,1.4297 -0.9417,1.9644 -0.4546,0.5346 -1.0658,0.9564 -1.8294,1.2724 -0.7674,0.3167 -1.7638,0.4765 -2.9968,0.4765 -1.4874,0 -2.6147,-0.1709 -3.382,-0.5162 -0.7677,-0.3458 -1.3749,-0.7931 -1.8222,-1.3456 -0.4473,-0.5527 -0.7384,-1.1276 -0.8801,-1.735 -0.2072,-0.8947 -0.3093,-2.2182 -0.3093,-3.9674 z m 15.8457,15.6237 v -15.4931 h 3.164 v 12.8529 h 7.8339 v 2.6402 z m 15.1364,0 v -12.9836 h -4.6258 v -2.6401 h 12.3942 v 2.6401 h -4.6043 v 12.9836 z m 8.7684,-7.7173 c 0,-1.5928 0.2401,-2.9314 0.7166,-4.015 0.3527,-0.7969 0.8399,-1.5132 1.4548,-2.1462 0.6145,-0.6326 1.2872,-1.1018 2.0182,-1.4108 0.9746,-0.411 2.0985,-0.6185 3.3713,-0.6185 2.3057,0 4.1459,0.7166 5.5315,2.1459 1.3822,1.4331 2.0733,3.4222 2.0733,5.9714 0,2.528 -0.6874,4.5063 -2.0585,5.9321 -1.3712,1.4289 -3.2077,2.1418 -5.5027,2.1418 -2.3238,0 -4.1748,-0.7092 -5.5459,-2.131 -1.3712,-1.4182 -2.0586,-3.3753 -2.0586,-5.8697 z m 3.2514,-0.1058 c 0,1.7714 0.411,3.113 1.2291,4.0298 0.8183,0.913 1.8584,1.3711 3.117,1.3711 1.2619,0 2.2946,-0.4544 3.1056,-1.3604 0.8076,-0.909 1.2112,-2.2691 1.2112,-4.0839 0,-1.7931 -0.3928,-3.1314 -1.182,-4.0113 -0.7855,-0.8841 -1.8292,-1.3237 -3.1348,-1.3237 -1.302,0 -2.3531,0.4473 -3.1496,1.3379 -0.7965,0.8946 -1.1965,2.2402 -1.1965,4.0405 z m 14.3762,7.8231 v -15.6237 h 6.6447 c 1.669,0 2.8839,0.1417 3.6402,0.4218 0.7603,0.2797 1.3638,0.7783 1.8184,1.4947 0.4547,0.7202 0.6838,1.538 0.6838,2.4619 0,1.1746 -0.3419,2.1424 -1.0293,2.9057 -0.6874,0.764 -1.713,1.2442 -3.0804,1.444 0.6803,0.3966 1.2401,0.8328 1.6804,1.3091 0.4436,0.4767 1.04,1.3237 1.7892,2.5389 l 1.9057,3.0476 h -3.7715 l -2.262,-3.4112 c -0.811,-1.2116 -1.3674,-1.9749 -1.6693,-2.2916 -0.2982,-0.3126 -0.6146,-0.5306 -0.9491,-0.6471 -0.3382,-0.1162 -0.8694,-0.1746 -1.5967,-0.1746 h -0.6401 v 6.5245 z m 3.164,-9.0119 h 2.3349 c 1.5129,0 2.4548,-0.0655 2.8332,-0.1931 0.3745,-0.1272 0.6727,-0.3489 0.8836,-0.6619 0.2146,-0.3126 0.32,-0.7052 0.32,-1.1744 0,-0.5278 -0.1417,-0.9496 -0.4218,-1.277 -0.28,-0.3237 -0.6763,-0.5269 -1.1854,-0.6105 -0.2583,-0.0363 -1.0259,-0.0548 -2.3023,-0.0548 h -2.4622 z m 12.4855,9.0119 v -15.6237 h 3.164 v 15.6237 z m 20.2459,0 h -3.4078 l -1.349,-3.5569 h -6.2663 l -1.2986,3.5569 h -3.3457 l 6.0661,-15.6237 h 3.3424 z m -5.7827,-6.1971 -2.1711,-5.7824 -2.1092,5.7824 z m 25.9815,6.1971 h -3.4078 l -1.349,-3.5569 h -6.2663 l -1.2985,3.5569 h -3.3458 l 6.0662,-15.6237 h 3.3423 z m -5.7827,-6.1971 -2.171,-5.7824 -2.1093,5.7824 z m 7.4231,6.1971 v -15.6237 h 4.7387 l 2.8003,10.6557 2.7675,-10.6557 h 4.7497 v 15.6237 h -2.9239 l -0.0111,-12.2996 -3.0804,12.2996 h -3.0401 l -3.066,-12.2996 -0.0107,12.2996 z m 18.2203,-15.6237 h 6.2481 c 1.2402,0 2.1603,0.051 2.7677,0.1527 0.6109,0.1052 1.1529,0.3201 1.6328,0.6435 0.4802,0.3271 0.8802,0.7603 1.2002,1.3022 0.32,0.5417 0.4802,1.1526 0.4802,1.8256 0,0.727 -0.1965,1.4003 -0.5893,2.0075 -0.3926,0.6108 -0.9273,1.0658 -1.6002,1.3711 0.9493,0.2798 1.6767,0.7529 2.1895,1.4218 0.5091,0.6693 0.7636,1.4551 0.7636,2.3602 0,0.7132 -0.1635,1.404 -0.4946,2.0766 -0.3311,0.6732 -0.7818,1.2115 -1.3567,1.6149 -0.5709,0.4003 -1.2764,0.6474 -2.1163,0.7418 -0.5239,0.0547 -1.7932,0.091 -3.8041,0.1058 h -5.3209 z m 3.164,2.5968 v 3.6003 h 2.0659 c 1.2254,0 1.9893,-0.0185 2.2875,-0.0547 0.5383,-0.0618 0.9638,-0.2472 1.2728,-0.5565 0.3093,-0.3093 0.4621,-0.7126 0.4621,-1.2146 0,-0.4836 -0.1347,-0.8728 -0.4003,-1.1747 -0.2653,-0.3016 -0.6619,-0.4839 -1.1854,-0.5457 -0.313,-0.0363 -1.2113,-0.0541 -2.6913,-0.0541 z m 0,6.1971 v 4.1896 h 2.9242 c 1.1347,0 1.8584,-0.0332 2.1637,-0.095 0.4691,-0.0873 0.8512,-0.2942 1.1458,-0.6256 0.2945,-0.3345 0.4436,-0.7747 0.4436,-1.3308 0,-0.4729 -0.1128,-0.8692 -0.3419,-1.1966 -0.2253,-0.3274 -0.5564,-0.5674 -0.9856,-0.7166 -0.4291,-0.1491 -1.3637,-0.225 -2.8003,-0.225 z m 12.4855,6.8298 v -15.6237 h 3.164 v 15.6237 z m 6.1713,0 v -15.6237 h 11.5651 v 2.6401 h -8.4011 v 3.4697 h 7.812 v 2.6401 h -7.812 v 4.2336 h 8.7066 v 2.6402 z m 14.5545,0 v -15.6237 h 3.0622 l 6.4299,10.4703 v -10.4703 h 2.9242 v 15.6237 h -3.1606 l -6.3315,-10.2702 v 10.2702 z m 19.2716,0 v -12.9836 h -4.6259 v -2.6401 h 12.3942 v 2.6401 h -4.6043 v 12.9836 z m 22.2718,0 h -3.4078 l -1.349,-3.5569 h -6.2663 l -1.2985,3.5569 h -3.3458 l 6.0662,-15.6237 h 3.3423 z m -5.7827,-6.1971 -2.171,-5.7824 -2.1093,5.7824 z m 7.5538,6.1971 v -15.4931 h 3.164 v 12.8529 h 7.8339 v 2.6402 z"
     style="fill:#3d7225;fill-rule:evenodd"
     id="path18" />
</svg>
